<svg width="66" height="66" viewBox="0 0 66 66" fill="none" xmlns="http://www.w3.org/2000/svg">
<g clip-path="url(#clip0_6_37)">
<g filter="url(#filter0_d_6_37)">
<mask id="path-3-outside-1_6_37" maskUnits="userSpaceOnUse" x="29" y="24" width="36" height="36" fill="black">
<rect fill="white" x="29" y="24" width="36" height="36"/>
<path d="M42.4 57.24V46.36H31.52V37.4H42.4V26.52H52V37.4H62.88V46.36H52V57.24H42.4Z"/>
</mask>
<path d="M42.4 57.24V46.36H31.52V37.4H42.4V26.52H52V37.4H62.88V46.36H52V57.24H42.4Z" fill="white"/>
<path d="M42.4 57.24H40.4V59.24H42.4V57.24ZM42.4 46.36H44.4V44.36H42.4V46.36ZM31.52 46.36H29.52V48.36H31.52V46.36ZM31.52 37.4V35.4H29.52V37.4H31.52ZM42.4 37.4V39.4H44.4V37.4H42.4ZM42.4 26.52V24.52H40.4V26.52H42.4ZM52 26.52H54V24.52H52V26.52ZM52 37.4H50V39.4H52V37.4ZM62.88 37.4H64.88V35.4H62.88V37.4ZM62.88 46.36V48.36H64.88V46.36H62.88ZM52 46.36V44.36H50V46.36H52ZM52 57.24V59.24H54V57.24H52ZM42.4 57.24H44.4V46.36H42.4H40.4V57.24H42.4ZM42.4 46.36V44.36H31.52V46.36V48.36H42.4V46.36ZM31.52 46.36H33.52V37.4H31.52H29.52V46.36H31.52ZM31.52 37.4V39.4H42.4V37.4V35.4H31.52V37.4ZM42.4 37.4H44.4V26.52H42.4H40.4V37.4H42.4ZM42.4 26.52V28.52H52V26.52V24.52H42.4V26.52ZM52 26.52H50V37.4H52H54V26.52H52ZM52 37.4V39.4H62.88V37.4V35.4H52V37.4ZM62.88 37.4H60.88V46.36H62.88H64.88V37.4H62.88ZM62.88 46.36V44.36H52V46.36V48.36H62.88V46.36ZM52 46.36H50V57.24H52H54V46.36H52ZM52 57.24V55.24H42.4V57.24V59.24H52V57.24Z" fill="#121212" mask="url(#path-3-outside-1_6_37)"/>
</g>
<g filter="url(#filter1_d_6_37)">
<mask id="path-5-outside-2_6_37" maskUnits="userSpaceOnUse" x="3" y="10" width="34" height="34" fill="black">
<rect fill="white" x="3" y="10" width="34" height="34"/>
<path d="M15.4 42.24V31.36H4.52V22.4H15.4V11.52H25V22.4H35.88V31.36H25V42.24H15.4Z"/>
</mask>
<path d="M15.4 42.24V31.36H4.52V22.4H15.4V11.52H25V22.4H35.88V31.36H25V42.24H15.4Z" fill="#AA99FD"/>
<path d="M15.4 42.24H14.4V43.24H15.4V42.24ZM15.4 31.36H16.4V30.36H15.4V31.36ZM4.52 31.36H3.52V32.36H4.52V31.36ZM4.52 22.4V21.4H3.52V22.4H4.52ZM15.4 22.4V23.4H16.4V22.4H15.4ZM15.4 11.52V10.52H14.4V11.52H15.4ZM25 11.52H26V10.52H25V11.52ZM25 22.4H24V23.4H25V22.4ZM35.88 22.4H36.88V21.4H35.88V22.4ZM35.88 31.36V32.36H36.88V31.36H35.88ZM25 31.36V30.36H24V31.36H25ZM25 42.24V43.24H26V42.24H25ZM15.4 42.24H16.4V31.36H15.4H14.4V42.24H15.4ZM15.4 31.36V30.36H4.52V31.36V32.36H15.4V31.36ZM4.52 31.36H5.52V22.4H4.52H3.52V31.36H4.52ZM4.52 22.4V23.4H15.4V22.4V21.4H4.52V22.4ZM15.4 22.4H16.4V11.52H15.4H14.4V22.4H15.4ZM15.4 11.52V12.52H25V11.52V10.52H15.4V11.52ZM25 11.52H24V22.4H25H26V11.52H25ZM25 22.4V23.4H35.88V22.4V21.4H25V22.4ZM35.88 22.4H34.88V31.36H35.88H36.88V22.4H35.88ZM35.88 31.36V30.36H25V31.36V32.36H35.88V31.36ZM25 31.36H24V42.24H25H26V31.36H25ZM25 42.24V41.24H15.4V42.24V43.24H25V42.24Z" fill="#AA99FD" mask="url(#path-5-outside-2_6_37)"/>
</g>
</g>
<rect x="0.5" y="0.5" width="65" height="65" stroke="black"/>
<defs>
<filter id="filter0_d_6_37" x="27.52" y="24.52" width="39.36" height="38.72" filterUnits="userSpaceOnUse" color-interpolation-filters="sRGB">
<feFlood flood-opacity="0" result="BackgroundImageFix"/>
<feColorMatrix in="SourceAlpha" type="matrix" values="0 0 0 0 0 0 0 0 0 0 0 0 0 0 0 0 0 0 127 0" result="hardAlpha"/>
<feOffset dy="2"/>
<feGaussianBlur stdDeviation="1"/>
<feComposite in2="hardAlpha" operator="out"/>
<feColorMatrix type="matrix" values="0 0 0 0 0 0 0 0 0 0 0 0 0 0 0 0 0 0 0.25 0"/>
<feBlend mode="normal" in2="BackgroundImageFix" result="effect1_dropShadow_6_37"/>
<feBlend mode="normal" in="SourceGraphic" in2="effect1_dropShadow_6_37" result="shape"/>
</filter>
<filter id="filter1_d_6_37" x="1.51999" y="10.52" width="37.36" height="36.72" filterUnits="userSpaceOnUse" color-interpolation-filters="sRGB">
<feFlood flood-opacity="0" result="BackgroundImageFix"/>
<feColorMatrix in="SourceAlpha" type="matrix" values="0 0 0 0 0 0 0 0 0 0 0 0 0 0 0 0 0 0 127 0" result="hardAlpha"/>
<feOffset dy="2"/>
<feGaussianBlur stdDeviation="1"/>
<feComposite in2="hardAlpha" operator="out"/>
<feColorMatrix type="matrix" values="0 0 0 0 0 0 0 0 0 0 0 0 0 0 0 0 0 0 0.25 0"/>
<feBlend mode="normal" in2="BackgroundImageFix" result="effect1_dropShadow_6_37"/>
<feBlend mode="normal" in="SourceGraphic" in2="effect1_dropShadow_6_37" result="shape"/>
</filter>
<clipPath id="clip0_6_37">
<rect x="1" y="1" width="64" height="64" fill="white"/>
</clipPath>
</defs>
</svg>
