<svg width="24" height="24" viewBox="0 0 24 24" fill="none" xmlns="http://www.w3.org/2000/svg">
<g clip-path="url(#clip0_31_31)">
<g filter="url(#filter0_d_31_31)">
<rect x="12" y="2.10051" width="14" height="14" rx="2" transform="rotate(45 12 2.10051)" fill="#8771E6"/>
</g>
<path d="M10.5355 3.51472C11.3166 2.73367 12.5829 2.73367 13.364 3.51472L20.435 10.5858C21.2161 11.3668 21.2161 12.6332 20.435 13.4142L16.8995 16.9498L6.99999 7.05026L10.5355 3.51472Z" fill="#D9D9D9"/>
<path d="M13.3137 20.435C12.5327 21.2161 11.2663 21.2161 10.4853 20.435L5.411 15.3607C4.62996 14.5797 4.62995 13.3134 5.411 12.5323L8.94654 8.99678L16.8493 16.8995L13.3137 20.435Z" fill="#D9D9D9"/>
<path d="M12.4568 5.436C13.2378 4.65495 14.5041 4.65495 15.2852 5.436L20.435 10.5858C21.216 11.3668 21.216 12.6332 20.435 13.4142L16.8994 16.9498L8.92122 8.97154L12.4568 5.436Z" fill="#8771E6"/>
</g>
<defs>
<filter id="filter0_d_31_31" x="0.928925" y="2.92894" width="22.1422" height="22.1421" filterUnits="userSpaceOnUse" color-interpolation-filters="sRGB">
<feFlood flood-opacity="0" result="BackgroundImageFix"/>
<feColorMatrix in="SourceAlpha" type="matrix" values="0 0 0 0 0 0 0 0 0 0 0 0 0 0 0 0 0 0 127 0" result="hardAlpha"/>
<feOffset dy="2"/>
<feGaussianBlur stdDeviation="1"/>
<feComposite in2="hardAlpha" operator="out"/>
<feColorMatrix type="matrix" values="0 0 0 0 0 0 0 0 0 0 0 0 0 0 0 0 0 0 0.25 0"/>
<feBlend mode="normal" in2="BackgroundImageFix" result="effect1_dropShadow_31_31"/>
<feBlend mode="normal" in="SourceGraphic" in2="effect1_dropShadow_31_31" result="shape"/>
</filter>
<clipPath id="clip0_31_31">
<rect width="24" height="24" fill="white"/>
</clipPath>
</defs>
</svg>
