<svg width="32" height="32" viewBox="0 0 32 32" fill="none" xmlns="http://www.w3.org/2000/svg">
<ellipse cx="16" cy="23" rx="15" ry="7" fill="#DE4C36"/>
<path d="M31 16C31 14.3805 29.7967 12.8111 27.5952 11.5592C25.3936 10.3074 22.33 9.45045 18.9264 9.1345C15.5227 8.81856 11.9896 9.06313 8.92905 9.82655C5.86849 10.59 3.46985 11.825 2.14181 13.3212C0.81377 14.8174 0.638512 16.4822 1.64589 18.032C2.65328 19.5817 4.78097 20.9205 7.66645 21.8203C10.5519 22.72 14.0166 23.125 17.4703 22.9663C20.9239 22.8076 24.1527 22.0949 26.6066 20.9497L16 16H31Z" fill="#8585E9"/>
<path d="M31 9C31 7.69348 30.2165 6.41303 28.738 5.30352C27.2596 4.19402 25.1453 3.29975 22.6343 2.72189C20.1234 2.14403 17.316 1.90565 14.5297 2.03371C11.7435 2.16177 9.08972 2.65117 6.86858 3.44653C4.64743 4.24189 2.9476 5.31147 1.96141 6.53425C0.975219 7.75703 0.742028 9.08421 1.28822 10.3656C1.83441 11.6471 3.13819 12.8316 5.05204 13.7851C6.96589 14.7387 9.41342 15.4233 12.1177 15.7615L16 9H31Z" fill="#FEC008"/>
</svg>
