<svg width="66" height="66" viewBox="0 0 66 66" fill="none" xmlns="http://www.w3.org/2000/svg">
<g clip-path="url(#clip0_7_79)">
<g filter="url(#filter0_d_7_79)">
<mask id="path-3-outside-1_7_79" maskUnits="userSpaceOnUse" x="12" y="7" width="43" height="51" fill="black">
<rect fill="white" x="12" y="7" width="43" height="51"/>
<path d="M42.3723 8.472H53.5323V57H42.3723V37.632H24.5883V57H13.5003V8.472H24.5883V28.2H42.3723V8.472Z"/>
</mask>
<path d="M42.3723 8.472H53.5323V57H42.3723V37.632H24.5883V57H13.5003V8.472H24.5883V28.2H42.3723V8.472Z" fill="white"/>
<path d="M42.3723 8.472V7.472H41.3723V8.472H42.3723ZM53.5323 8.472H54.5323V7.472H53.5323V8.472ZM53.5323 57V58H54.5323V57H53.5323ZM42.3723 57H41.3723V58H42.3723V57ZM42.3723 37.632H43.3723V36.632H42.3723V37.632ZM24.5883 37.632V36.632H23.5883V37.632H24.5883ZM24.5883 57V58H25.5883V57H24.5883ZM13.5003 57H12.5003V58H13.5003V57ZM13.5003 8.472V7.472H12.5003V8.472H13.5003ZM24.5883 8.472H25.5883V7.472H24.5883V8.472ZM24.5883 28.2H23.5883V29.2H24.5883V28.2ZM42.3723 28.2V29.2H43.3723V28.2H42.3723ZM42.3723 8.472V9.472H53.5323V8.472V7.472H42.3723V8.472ZM53.5323 8.472H52.5323V57H53.5323H54.5323V8.472H53.5323ZM53.5323 57V56H42.3723V57V58H53.5323V57ZM42.3723 57H43.3723V37.632H42.3723H41.3723V57H42.3723ZM42.3723 37.632V36.632H24.5883V37.632V38.632H42.3723V37.632ZM24.5883 37.632H23.5883V57H24.5883H25.5883V37.632H24.5883ZM24.5883 57V56H13.5003V57V58H24.5883V57ZM13.5003 57H14.5003V8.472H13.5003H12.5003V57H13.5003ZM13.5003 8.472V9.472H24.5883V8.472V7.472H13.5003V8.472ZM24.5883 8.472H23.5883V28.2H24.5883H25.5883V8.472H24.5883ZM24.5883 28.2V29.2H42.3723V28.2V27.2H24.5883V28.2ZM42.3723 28.2H43.3723V8.472H42.3723H41.3723V28.2H42.3723Z" fill="white" mask="url(#path-3-outside-1_7_79)"/>
</g>
</g>
<rect x="0.5" y="0.5" width="65" height="65" stroke="black"/>
<defs>
<filter id="filter0_d_7_79" x="10.5003" y="7.472" width="46.032" height="54.528" filterUnits="userSpaceOnUse" color-interpolation-filters="sRGB">
<feFlood flood-opacity="0" result="BackgroundImageFix"/>
<feColorMatrix in="SourceAlpha" type="matrix" values="0 0 0 0 0 0 0 0 0 0 0 0 0 0 0 0 0 0 127 0" result="hardAlpha"/>
<feOffset dy="2"/>
<feGaussianBlur stdDeviation="1"/>
<feComposite in2="hardAlpha" operator="out"/>
<feColorMatrix type="matrix" values="0 0 0 0 0 0 0 0 0 0 0 0 0 0 0 0 0 0 0.25 0"/>
<feBlend mode="normal" in2="BackgroundImageFix" result="effect1_dropShadow_7_79"/>
<feBlend mode="normal" in="SourceGraphic" in2="effect1_dropShadow_7_79" result="shape"/>
</filter>
<clipPath id="clip0_7_79">
<rect x="1" y="1" width="64" height="64" fill="white"/>
</clipPath>
</defs>
</svg>
