<svg width="32" height="32" viewBox="0 0 32 32" fill="none" xmlns="http://www.w3.org/2000/svg">
<g clip-path="url(#clip0_8_79)">
<rect x="1.00038" y="1" width="29.9992" height="29.9992" rx="5" fill="#AA99FD"/>
<path d="M18.1582 19.9718C20.131 18.0397 23.3299 18.0397 25.3027 19.9719L30.8964 25.4505C30.9315 25.4849 30.9651 25.5209 30.9989 25.556L30.9989 26.0003C30.9986 28.7615 28.7601 31.0003 25.9989 31.0002L14.909 31.0001L14.4754 30.5753C12.5029 28.6431 12.503 25.5104 14.4755 23.5782L18.1582 19.9718Z" fill="url(#paint0_linear_8_79)"/>
<g filter="url(#filter0_d_8_79)">
<path d="M6.67548 15.477C8.61719 13.5135 11.7651 13.5135 13.7067 15.4771L28.0678 29.9997C28.188 30.1212 28.3014 30.2474 28.4067 30.3777C27.6909 30.7733 26.8683 30.9996 25.9926 30.9997L5.99947 30.9994C3.23823 30.9992 0.99959 28.7606 0.999542 25.9993L0.999612 21.2161L6.67548 15.477Z" fill="url(#paint1_linear_8_79)"/>
</g>
<circle cx="23.0002" cy="9.00019" r="4.00013" fill="white"/>
</g>
<defs>
<filter id="filter0_d_8_79" x="-3.00046" y="14.0044" width="35.4072" height="24.9953" filterUnits="userSpaceOnUse" color-interpolation-filters="sRGB">
<feFlood flood-opacity="0" result="BackgroundImageFix"/>
<feColorMatrix in="SourceAlpha" type="matrix" values="0 0 0 0 0 0 0 0 0 0 0 0 0 0 0 0 0 0 127 0" result="hardAlpha"/>
<feOffset dy="4"/>
<feGaussianBlur stdDeviation="2"/>
<feComposite in2="hardAlpha" operator="out"/>
<feColorMatrix type="matrix" values="0 0 0 0 0 0 0 0 0 0 0 0 0 0 0 0 0 0 0.25 0"/>
<feBlend mode="normal" in2="BackgroundImageFix" result="effect1_dropShadow_8_79"/>
<feBlend mode="normal" in="SourceGraphic" in2="effect1_dropShadow_8_79" result="shape"/>
</filter>
<linearGradient id="paint0_linear_8_79" x1="21.7919" y1="17.4692" x2="21.7916" y2="37.3079" gradientUnits="userSpaceOnUse">
<stop stop-color="#5078D2"/>
<stop offset="1" stop-color="#20469D"/>
</linearGradient>
<linearGradient id="paint1_linear_8_79" x1="9.66719" y1="12.7662" x2="3.83146" y2="45.8377" gradientUnits="userSpaceOnUse">
<stop stop-color="#195098"/>
<stop offset="1" stop-color="#092347"/>
</linearGradient>
<clipPath id="clip0_8_79">
<rect width="32" height="32" fill="white"/>
</clipPath>
</defs>
</svg>
