<svg width="66" height="66" viewBox="0 0 66 66" fill="none" xmlns="http://www.w3.org/2000/svg">
<g clip-path="url(#clip0_32_83)">
<path d="M2 9H54C59.5228 9 64 13.4772 64 19V47C64 52.5228 59.5228 57 54 57H12C6.47715 57 2 52.5228 2 47V9Z" fill="#9C7070"/>
<g filter="url(#filter0_d_32_83)">
<path d="M24.0057 25.2216L3.4375 33.858V27.4091L17.017 22.3239L16.8182 22.6506V21.8977L17.017 22.2102L3.4375 17.1392V10.6761L24.0057 19.3125V25.2216ZM46.8643 34V39.0852H27.4467V34H46.8643Z" fill="white"/>
</g>
</g>
<rect x="0.5" y="0.5" width="65" height="65" stroke="black"/>
<defs>
<filter id="filter0_d_32_83" x="1.4375" y="10.6761" width="47.4268" height="32.4091" filterUnits="userSpaceOnUse" color-interpolation-filters="sRGB">
<feFlood flood-opacity="0" result="BackgroundImageFix"/>
<feColorMatrix in="SourceAlpha" type="matrix" values="0 0 0 0 0 0 0 0 0 0 0 0 0 0 0 0 0 0 127 0" result="hardAlpha"/>
<feOffset dy="2"/>
<feGaussianBlur stdDeviation="1"/>
<feComposite in2="hardAlpha" operator="out"/>
<feColorMatrix type="matrix" values="0 0 0 0 0 0 0 0 0 0 0 0 0 0 0 0 0 0 0.25 0"/>
<feBlend mode="normal" in2="BackgroundImageFix" result="effect1_dropShadow_32_83"/>
<feBlend mode="normal" in="SourceGraphic" in2="effect1_dropShadow_32_83" result="shape"/>
</filter>
<clipPath id="clip0_32_83">
<rect x="1" y="1" width="64" height="64" fill="white"/>
</clipPath>
</defs>
</svg>
